<svg version="1.2" xmlns="http://www.w3.org/2000/svg" viewBox="0 0 595 842" width="595" height="842"><defs><linearGradient id="P" gradientUnits="userSpaceOnUse"/><radialGradient id="g1" cx="0" cy="0" r="1" href="#P" gradientTransform="matrix(193.681,0,0,193.681,297.638,421.055)"><stop stop-color="#feca07"/><stop offset="1" stop-color="#f4811f"/></radialGradient></defs><style>.a{fill:url(#g1)}.b{fill:#ec1c24}</style><path fill-rule="evenodd" class="a" d="m301.2 305.6h0.2l0.6 24.3q-31.8 1.2-48.5 16.5c-20.2 18.6-25.6 41.4-60.6 38.1-3.9 25 10.8 36.8 38.1 39.4 109.2 8.5 166.1 49 202.3 143.5-56.3-1.7-103.8 1.6-152.2-32.7 10 15.1 25.3 28 47 38.3-9.9 2.3-20.1 3.5-30.7 3.5-74.8 0-135.5-60.7-135.5-135.5 0-61.7 41.3-113.7 97.7-130.1h-0.1q2.2-17.3-2.4-29.2c13.2 4.5 25 10.9 34.8 20-0.4-12.2-1.4-24.4-5.7-36.1 36 4.3 60.2 25.4 77 57 41.6 23.1 69.7 67.5 69.7 118.4 0 17.3-3.2 33.9-9.1 49.1 10.2-57.6-1.5-111.4-73.7-155-5.4-24.9-23.5-43.5-49.7-56.3zm-32.3-10.3q4.9 12.4 2.4 30.4 11.3-5.7 23.5-4c-5.1-9.8-13.2-18.8-25.9-26.4z"/><path class="b" d="m250.7 373.2c18.6-24 12-19.3 45.6-21.7-10.5 8.5-28.2 17.7-45.6 21.7z"/></svg>